<svg width="60" height="60" viewBox="0 0 60 60" fill="none" xmlns="http://www.w3.org/2000/svg">
<path d="M51.35 13.075L47.875 8.875C47.2 8.025 46.175 7.5 45 7.5H15C13.825 7.5 12.8 8.025 12.1 8.875L8.65 13.075C7.925 13.925 7.5 15.05 7.5 16.25V47.5C7.5 50.25 9.75 52.5 12.5 52.5H47.5C50.25 52.5 52.5 50.25 52.5 47.5V16.25C52.5 15.05 52.075 13.925 51.35 13.075ZM15.6 12.5H44.4L46.425 14.925H13.6L15.6 12.5ZM12.5 47.5V20H47.5V47.5H12.5ZM33.625 25H26.375V32.5H20L30 42.5L40 32.5H33.625V25Z" fill="black"/>
</svg>
