<svg width="48" height="48" viewBox="0 0 48 48" fill="none" xmlns="http://www.w3.org/2000/svg">
<path d="M36.4379 0.43824C36.5772 0.29855 36.7428 0.187722 36.925 0.112102C37.1072 0.036483 37.3026 -0.00244141 37.4999 -0.00244141C37.6972 -0.00244141 37.8926 0.036483 38.0748 0.112102C38.257 0.187722 38.4226 0.29855 38.5619 0.43824L47.5619 9.43824C47.7016 9.57758 47.8124 9.7431 47.888 9.92534C47.9637 10.1076 48.0026 10.3029 48.0026 10.5002C48.0026 10.6975 47.9637 10.8929 47.888 11.0751C47.8124 11.2574 47.7016 11.4229 47.5619 11.5622L17.5619 41.5622C17.418 41.7052 17.2465 41.8175 17.0579 41.8922L2.05791 47.8922C1.78531 48.0014 1.48669 48.0281 1.19906 47.9691C0.911436 47.9101 0.647448 47.7679 0.439829 47.5603C0.232209 47.3527 0.0900887 47.0887 0.0310864 46.8011C-0.027916 46.5135 -0.0012055 46.2148 0.107907 45.9422L6.10791 30.9422C6.18269 30.7537 6.29496 30.5822 6.43791 30.4382L36.4379 0.43824ZM33.6209 7.50024L40.4999 14.3792L44.3789 10.5002L37.4999 3.62124L33.6209 7.50024ZM38.3789 16.5002L31.4999 9.62124L11.9999 29.1212V30.0002H13.4999C13.8977 30.0002 14.2793 30.1583 14.5606 30.4396C14.8419 30.7209 14.9999 31.1024 14.9999 31.5002V33.0002H16.4999C16.8977 33.0002 17.2793 33.1583 17.5606 33.4396C17.8419 33.7209 17.9999 34.1024 17.9999 34.5002V36.0002H18.8789L38.3789 16.5002ZM9.09591 32.0252L8.77791 32.3432L4.19391 43.8062L15.6569 39.2222L15.9749 38.9042C15.6888 38.7973 15.4421 38.6056 15.2679 38.3547C15.0936 38.1038 15.0001 37.8057 14.9999 37.5002V36.0002H13.4999C13.1021 36.0002 12.7206 35.8422 12.4392 35.5609C12.1579 35.2796 11.9999 34.8981 11.9999 34.5002V33.0002H10.4999C10.1944 33 9.89633 32.9065 9.64544 32.7323C9.39454 32.5581 9.20282 32.3114 9.09591 32.0252Z" fill="black"/>
</svg>
