<svg width="128" height="46" viewBox="0 0 128 46" fill="none" xmlns="http://www.w3.org/2000/svg">
<path d="M0.792614 45V1.36364H18.0085C21.3182 1.36364 24.1378 1.99574 26.4673 3.25994C28.7969 4.50994 30.5724 6.25 31.794 8.48011C33.0298 10.696 33.6477 13.2528 33.6477 16.1506C33.6477 19.0483 33.0227 21.6051 31.7727 23.821C30.5227 26.0369 28.7116 27.7628 26.3395 28.9986C23.9815 30.2344 21.1264 30.8523 17.7741 30.8523H6.80114V23.4588H16.2827C18.0582 23.4588 19.5213 23.1534 20.6719 22.5426C21.8366 21.9176 22.7031 21.0582 23.2713 19.9645C23.8537 18.8565 24.1449 17.5852 24.1449 16.1506C24.1449 14.7017 23.8537 13.4375 23.2713 12.358C22.7031 11.2642 21.8366 10.419 20.6719 9.82244C19.5071 9.21165 18.0298 8.90625 16.2401 8.90625H10.0185V45H0.792614ZM39.6403 1.36364H51.0181L63.0352 30.6818H63.5465L75.5636 1.36364H86.9414V45H77.9925V16.598H77.6303L66.3377 44.7869H60.244L48.9513 16.4915H48.5891V45H39.6403V1.36364ZM118.214 13.9134C118.044 12.1946 117.313 10.8594 116.02 9.90767C114.727 8.95596 112.973 8.48011 110.757 8.48011C109.251 8.48011 107.98 8.69318 106.943 9.11932C105.906 9.53125 105.111 10.1065 104.557 10.8452C104.017 11.5838 103.747 12.4219 103.747 13.3594C103.719 14.1406 103.882 14.8224 104.237 15.4048C104.607 15.9872 105.111 16.4915 105.75 16.9176C106.389 17.3295 107.128 17.6918 107.966 18.0043C108.804 18.3026 109.699 18.5582 110.651 18.7713L114.571 19.7088C116.474 20.1349 118.222 20.7031 119.812 21.4134C121.403 22.1236 122.781 22.9972 123.946 24.0341C125.111 25.071 126.013 26.2926 126.652 27.6989C127.305 29.1051 127.639 30.7173 127.653 32.5355C127.639 35.206 126.957 37.5213 125.608 39.4815C124.273 41.4276 122.341 42.9403 119.812 44.0199C117.298 45.0852 114.266 45.6179 110.714 45.6179C107.192 45.6179 104.124 45.0781 101.51 43.9986C98.9105 42.919 96.8793 41.321 95.4162 39.2045C93.9673 37.0739 93.2074 34.4389 93.1364 31.2997H102.064C102.163 32.7628 102.582 33.9844 103.321 34.9645C104.074 35.9304 105.075 36.6619 106.325 37.1591C107.589 37.642 109.017 37.8835 110.608 37.8835C112.17 37.8835 113.527 37.6562 114.678 37.2017C115.842 36.7472 116.744 36.1151 117.384 35.3054C118.023 34.4957 118.342 33.5653 118.342 32.5142C118.342 31.5341 118.051 30.7102 117.469 30.0426C116.901 29.375 116.063 28.8068 114.955 28.3381C113.861 27.8693 112.518 27.4432 110.928 27.0597L106.176 25.8665C102.497 24.9716 99.5923 23.5724 97.4616 21.669C95.331 19.7656 94.2727 17.2017 94.2869 13.9773C94.2727 11.3352 94.9759 9.02699 96.3963 7.05256C97.831 5.07812 99.7983 3.53693 102.298 2.42898C104.798 1.32102 107.639 0.767044 110.821 0.767044C114.06 0.767044 116.886 1.32102 119.301 2.42898C121.73 3.53693 123.619 5.07812 124.969 7.05256C126.318 9.02699 127.014 11.3139 127.057 13.9134H118.214Z" fill="white"/>
</svg>
